<svg width="12" height="13" viewBox="0 0 12 13" fill="none" xmlns="http://www.w3.org/2000/svg">
<g id="Frame" clip-path="url(#clip0_5821_226)">
<path id="Vector" d="M6.20677 9.28336L8.57093 10.7812C8.87313 10.9727 9.24833 10.6879 9.15866 10.3351L8.4756 7.64816C8.45636 7.57332 8.45864 7.49457 8.48217 7.42097C8.5057 7.34737 8.54953 7.28191 8.60861 7.2321L10.7286 5.46757C11.0072 5.23571 10.8634 4.77341 10.5055 4.75018L7.73691 4.57049C7.66234 4.56517 7.59081 4.53876 7.53067 4.49436C7.47052 4.44996 7.42422 4.38938 7.39716 4.31968L6.36459 1.71939C6.33652 1.64541 6.28661 1.58172 6.22149 1.53678C6.15637 1.49184 6.07912 1.46777 6 1.46777C5.92088 1.46777 5.84363 1.49184 5.77851 1.53678C5.71339 1.58172 5.66348 1.64541 5.63542 1.71939L4.60284 4.31968C4.57578 4.38938 4.52949 4.44996 4.46934 4.49436C4.40919 4.53876 4.33766 4.56517 4.26309 4.57049L1.49447 4.75018C1.13658 4.77341 0.992798 5.23571 1.27136 5.46757L3.39139 7.2321C3.45047 7.28191 3.4943 7.34737 3.51783 7.42097C3.54136 7.49457 3.54364 7.57332 3.5244 7.64816L2.89094 10.14C2.78333 10.5633 3.23358 10.9051 3.59622 10.6753L5.79323 9.28336C5.85502 9.24403 5.92675 9.22314 6 9.22314C6.07325 9.22314 6.14498 9.24403 6.20677 9.28336Z" fill="#FFB051" stroke="#FFB051" stroke-linecap="round" stroke-linejoin="round"/>
</g>
<defs>
<clipPath id="clip0_5821_226">
<rect width="12" height="12" fill="white" transform="translate(0 0.342773)"/>
</clipPath>
</defs>
</svg>
